<?xml version="1.0" standalone="no"?>
<!DOCTYPE svg PUBLIC "-//W3C//DTD SVG 20010904//EN"
 "http://www.w3.org/TR/2001/REC-SVG-20010904/DTD/svg10.dtd">
<svg version="1.0" xmlns="http://www.w3.org/2000/svg"
 width="700.000000pt" height="700.000000pt" viewBox="0 0 700.000000 700.000000"
 preserveAspectRatio="xMidYMid meet">
<metadata>
Created by potrace 1.11, written by Peter Selinger 2001-2013
</metadata>
<g transform="translate(0.000000,700.000000) scale(0.100000,-0.100000)"
fill="#000000" stroke="none">
<path d="M2171 6842 c-69 -37 -71 -50 -71 -397 0 -340 2 -355 62 -398 31 -23
43 -25 146 -26 l72 -1 0 -285 0 -285 -59 -138 c-80 -187 -137 -309 -359 -762
-55 -113 -142 -293 -195 -400 -52 -107 -172 -352 -267 -545 -325 -659 -507
-1034 -580 -1190 -21 -44 -62 -132 -92 -195 -122 -255 -300 -651 -385 -858
-162 -398 -191 -538 -149 -737 26 -123 120 -260 230 -334 84 -56 231 -108 361
-126 28 -4 66 -10 85 -13 55 -10 4947 -11 5025 -2 66 8 124 17 170 25 212 37
381 144 470 297 63 108 93 275 73 407 -19 120 -166 510 -328 866 -10 22 -29
65 -43 95 -13 30 -37 82 -52 115 -15 33 -33 74 -40 90 -21 46 -151 323 -235
500 -172 359 -284 590 -450 930 -120 245 -226 464 -377 775 -42 85 -114 234
-161 330 -200 412 -237 492 -334 706 l-63 139 -3 297 -3 296 95 4 c107 3 137
18 169 79 16 31 17 64 15 351 -3 302 -4 318 -24 345 -11 15 -36 36 -55 45 -32
17 -116 18 -1324 18 -1231 0 -1292 -1 -1324 -18z m2449 -402 l0 -140 -1120 0
-1120 0 0 140 0 140 1120 0 1120 0 0 -140z m-280 -720 c0 -165 1 -303 1 -307
6 -38 110 -288 197 -473 164 -350 210 -444 702 -1445 252 -512 462 -947 595
-1230 117 -249 315 -682 315 -689 0 -2 15 -37 34 -78 95 -206 214 -528 241
-655 32 -150 -26 -277 -157 -340 -84 -40 -154 -56 -308 -70 -109 -10 -4816
-10 -4930 -1 -247 22 -386 81 -439 187 -53 104 -42 218 41 451 69 191 297 713
483 1105 227 477 364 758 780 1600 283 572 565 1152 565 1160 0 2 18 41 39 87
64 136 128 291 145 348 13 44 16 109 16 352 l0 298 840 0 840 0 0 -300z"/>
<path d="M3534 4185 c-220 -66 -535 -409 -730 -798 -31 -60 -57 -123 -115
-274 l-8 -21 -98 29 c-124 38 -108 34 -248 63 -242 51 -302 45 -349 -38 -37
-64 -104 -267 -122 -366 -2 -14 -7 -41 -10 -60 -31 -173 -22 -415 21 -599 64
-275 247 -597 447 -787 103 -98 267 -199 428 -262 80 -31 236 -78 285 -85 17
-3 41 -7 55 -11 14 -3 43 -7 65 -10 22 -3 54 -10 70 -15 17 -6 46 -13 65 -16
59 -11 421 -14 495 -4 101 13 149 20 155 24 3 2 23 6 45 9 66 11 267 82 353
125 374 188 649 552 767 1016 34 135 41 175 52 310 24 287 -23 585 -119 756
-29 51 -87 80 -148 74 -149 -15 -373 -67 -511 -119 l-88 -33 -16 53 c-23 81
-99 256 -166 384 -144 275 -415 630 -501 657 -24 7 -45 7 -74 -2z m75 -414
c107 -140 221 -322 291 -466 62 -127 130 -299 130 -328 0 -7 -42 -40 -93 -74
-128 -86 -250 -194 -331 -294 l-69 -85 -101 100 c-115 115 -251 220 -380 294
-49 28 -94 53 -100 55 -15 5 33 144 95 277 89 187 201 352 317 465 62 60 157
134 174 135 4 0 34 -36 67 -79z m1239 -918 c39 -168 45 -384 16 -535 -3 -15
-7 -40 -9 -56 -11 -88 -67 -255 -126 -377 -52 -105 -70 -135 -137 -225 -163
-220 -369 -352 -655 -420 -126 -30 -283 -40 -475 -30 l-53 3 2 126 c2 154 29
352 65 481 99 350 306 640 601 838 111 75 346 188 433 207 8 2 49 14 90 26 59
17 169 41 222 48 3 1 15 -38 26 -86z m-2543 37 c406 -67 797 -277 1031 -554
l42 -49 -39 -77 c-73 -148 -119 -280 -158 -456 -21 -92 -25 -118 -37 -229 -11
-98 -12 -107 -13 -183 l-1 -74 -32 5 c-108 16 -396 134 -504 208 -107 72 -203
181 -296 336 -174 289 -219 551 -154 900 4 18 18 69 32 114 25 79 26 81 52 74
15 -4 50 -10 77 -15z"/>
</g>
</svg>
